<svg xmlns="http://www.w3.org/2000/svg" xmlns:xlink="http://www.w3.org/1999/xlink" width="500" zoomAndPan="magnify" viewBox="0 0 375 374.999991" height="500" preserveAspectRatio="xMidYMid meet" version="1.0"><defs><g/></defs><rect x="-37.5" width="450" fill="#ffffff" y="-37.499999" height="449.999989" fill-opacity="1"/><rect x="-37.5" width="450" fill="#000000" y="-37.499999" height="449.999989" fill-opacity="1"/><path stroke-linecap="butt" transform="matrix(0.75, 0, 0, 0.75, 35.662583, 10.584675)" fill="none" stroke-linejoin="miter" d="M 180.20511 340.001706 L 180.20511 124.642317 L 99.074896 124.642317 L 99.074896 85.564189 L 305.408243 85.564189 L 305.408243 124.642317 L 224.715529 124.642317 L 224.715529 340.001706 Z M 180.20511 340.001706 " stroke="#ffffff" stroke-width="3.364416" stroke-opacity="1" stroke-miterlimit="4"/><g fill="#ffffff" fill-opacity="1"><g transform="translate(224.53581, 266.130436)"><g><path d="M 12.703125 0.875 C 10.410156 0.875 8.40625 0.390625 6.6875 -0.578125 C 4.976562 -1.554688 3.648438 -2.925781 2.703125 -4.6875 C 1.765625 -6.457031 1.296875 -8.519531 1.296875 -10.875 C 1.296875 -13.25 1.765625 -15.316406 2.703125 -17.078125 C 3.648438 -18.847656 4.976562 -20.21875 6.6875 -21.1875 C 8.40625 -22.164062 10.410156 -22.65625 12.703125 -22.65625 C 14.984375 -22.65625 16.976562 -22.164062 18.6875 -21.1875 C 20.40625 -20.21875 21.734375 -18.847656 22.671875 -17.078125 C 23.617188 -15.316406 24.09375 -13.25 24.09375 -10.875 C 24.09375 -8.519531 23.617188 -6.457031 22.671875 -4.6875 C 21.734375 -2.925781 20.40625 -1.554688 18.6875 -0.578125 C 16.976562 0.390625 14.984375 0.875 12.703125 0.875 Z M 12.703125 -0.78125 C 14.640625 -0.78125 16.332031 -1.203125 17.78125 -2.046875 C 19.226562 -2.890625 20.347656 -4.0625 21.140625 -5.5625 C 21.941406 -7.070312 22.34375 -8.84375 22.34375 -10.875 C 22.34375 -12.925781 21.941406 -14.707031 21.140625 -16.21875 C 20.347656 -17.726562 19.226562 -18.898438 17.78125 -19.734375 C 16.332031 -20.578125 14.640625 -21 12.703125 -21 C 10.753906 -21 9.054688 -20.578125 7.609375 -19.734375 C 6.160156 -18.898438 5.035156 -17.726562 4.234375 -16.21875 C 3.441406 -14.707031 3.046875 -12.925781 3.046875 -10.875 C 3.046875 -8.84375 3.441406 -7.070312 4.234375 -5.5625 C 5.035156 -4.0625 6.160156 -2.890625 7.609375 -2.046875 C 9.054688 -1.203125 10.753906 -0.78125 12.703125 -0.78125 Z M 12.703125 -0.78125 "/></g></g></g><g fill="#ffffff" fill-opacity="1"><g transform="translate(249.926163, 266.130436)"><g><path d="M 12.921875 -22.65625 C 15.492188 -22.65625 17.503906 -21.914062 18.953125 -20.4375 C 20.410156 -18.957031 21.140625 -16.914062 21.140625 -14.3125 L 21.140625 0 L 19.390625 0 L 19.390625 -14.21875 C 19.390625 -16.332031 18.796875 -17.988281 17.609375 -19.1875 C 16.421875 -20.394531 14.769531 -21 12.65625 -21 C 9.957031 -21 7.820312 -20.222656 6.25 -18.671875 C 4.6875 -17.117188 3.90625 -15.082031 3.90625 -12.5625 L 3.90625 0 L 2.171875 0 L 2.171875 -21.78125 L 3.828125 -21.78125 L 3.90625 -17.65625 L 3.953125 -17.65625 C 4.710938 -19.21875 5.863281 -20.441406 7.40625 -21.328125 C 8.957031 -22.210938 10.796875 -22.65625 12.921875 -22.65625 Z M 12.921875 -22.65625 "/></g></g></g><g fill="#ffffff" fill-opacity="1"><g transform="translate(273.012259, 266.130436)"><g><path d="M 3.3125 -26.484375 C 2.84375 -26.484375 2.460938 -26.617188 2.171875 -26.890625 C 1.878906 -27.171875 1.734375 -27.539062 1.734375 -28 C 1.734375 -28.4375 1.878906 -28.800781 2.171875 -29.09375 C 2.460938 -29.382812 2.84375 -29.53125 3.3125 -29.53125 C 3.738281 -29.53125 4.097656 -29.382812 4.390625 -29.09375 C 4.679688 -28.800781 4.828125 -28.4375 4.828125 -28 C 4.828125 -27.539062 4.679688 -27.171875 4.390625 -26.890625 C 4.097656 -26.617188 3.738281 -26.484375 3.3125 -26.484375 Z M 2.390625 0 L 2.390625 -21.78125 L 4.125 -21.78125 L 4.125 0 Z M 2.390625 0 "/></g></g></g></svg>